# xmcd
#
# Track frame offsets:
#	150
#	25743
#	43287
#	61890
#	74577
#	94530
#	116509
#	135465
#	158419
#	182124
#	194277
#	209860
#
# Disc length: 3024 seconds
#
# Revision: 1
# Processed by: cddbd v1.4PL0 Copyright (c) Steve Scherf et al.
# Submitted via: audiograbber 1.80
#
DISCID=aa0bce0c
DTITLE=Cowboy's Smokehouse Band - Evening At The Cowboy's Smokehouse 
DYEAR=1900
DGENRE=
TTITLE0=Cool Water
TTITLE1=When The Works All Done
TTITLE2=Your Cheatin' Heart
TTITLE3=Foggy Mountain Breakdown
TTITLE4=Address Unknown
TTITLE5=Ridin' Old Paint
TTITLE6=Red River Valley
TTITLE7=Ghost Riders In The Sky
TTITLE8=Moriah
TTITLE9=Dill Pickle Rag
TTITLE10=Tyin' Knots In The Devils Tail
TTITLE11=Old Chisholm Trail
EXTD=
EXTT0=
EXTT1=
EXTT2=
EXTT3=
EXTT4=
EXTT5=
EXTT6=
EXTT7=
EXTT8=
EXTT9=
EXTT10=
EXTT11=
PLAYORDER=
